<?xml version="1.0" standalone="no"?><!DOCTYPE svg PUBLIC "-//W3C//DTD SVG 1.1//EN" "http://www.w3.org/Graphics/SVG/1.1/DTD/svg11.dtd"><svg t="1594493892828" class="icon" viewBox="0 0 1024 1024" version="1.1" xmlns="http://www.w3.org/2000/svg" p-id="4465" xmlns:xlink="http://www.w3.org/1999/xlink" width="32" height="32"><defs><style type="text/css"></style></defs><path d="M709.12 67.008c-77.632 0-147.072 44.928-197.12 127.168C462.72 111.936 392.512 67.008 314.88 67.008 194.688 67.84 64 183.936 64 371.328s150.848 322.944 260.608 421.312c43.328 38.976 74.688 66.112 99.328 87.296 41.792 36.48 62.72 54.272 85.888 80.512L512 963.008l2.24-2.56c29.888-33.92 56.768-57.664 128.448-119.552 16.448-14.4 35.072-30.528 56.768-49.152C825.6 683.264 960 551.872 960 369.6 960 183.104 830.08 67.008 709.12 67.008L709.12 67.008z" p-id="4466" fill="#e6e6e6"></path></svg>